<svg version="1" xmlns="http://www.w3.org/2000/svg" viewBox="0 0 317.1 512"><path class="logo__icon--color" d="M263.2 234.7c-26.7 35.3-69.1 58.2-116.8 58.2-14 0-27.6-2-40.4-5.7-5.4 12.9-8.3 27.1-8.3 42 0 4.4.3 8.7.8 12.9 3.7-.5 7.5-.8 11.3-.8 47.1 0 85.3 38.2 85.3 85.3 0 3.9-.3 7.7-.8 11.4 4.3.5 8.6.8 13.1.8 60.6 0 109.7-49.1 109.7-109.7 0-40.2-21.6-75.3-53.9-94.4z"/><path class="logo__icon--color" d="M207.4 219.4c20.4 0 39.5 5.6 55.8 15.3 18.6-24.5 29.6-55.1 29.6-88.2C292.8 65.5 227.3 0 146.4 0 65.6 0 0 65.5 0 146.4c0 66.8 44.8 123.2 106 140.8 16.5-39.8 55.7-67.8 101.4-67.8zM98.5 342.1c-41.8 5.5-74 41.3-74 84.6 0 47.1 38.2 85.4 85.4 85.4 43.3 0 79-32.2 84.6-73.9-50.4-6.1-90.1-45.9-96-96.1z"/></svg>